{
  "accessors": [
    {
      "bufferView": 2,
      "componentType": 5126,
      "count": 3199,
      "max": [
        0.04996469244360924,
        0.04996459186077118,
        0.08796267211437225
      ],
      "min": [
        -0.049964696168899536,
        -0.04996459186077118,
        0.0039286185055971146
      ],
      "type": "VEC3"
    },
    {
      "bufferView": 2,
      "byteOffset": 38388,
      "componentType": 5126,
      "count": 3199,
      "max": [
        1.0,
        1.0,
        1.0
      ],
      "min": [
        -1.0,
        -1.0,
        -1.0
      ],
      "type": "VEC3"
    },
    {
      "bufferView": 1,
      "componentType": 5126,
      "count": 3199,
      "max": [
        1.000000238418579,
        1.000000238418579
      ],
      "min": [
        0.0,
        0.0
      ],
      "type": "VEC2"
    },
    {
      "bufferView": 0,
      "componentType": 5125,
      "count": 16128,
      "type": "SCALAR"
    },
    {
      "bufferView": 2,
      "byteOffset": 76776,
      "componentType": 5126,
      "count": 1805,
      "max": [
        0.05397438630461693,
        0.0107190553098917,
        0.10790301114320755
      ],
      "min": [
        -0.05397438630461693,
        -0.0107190553098917,
        -4.5762037188978866e-05
      ],
      "type": "VEC3"
    },
    {
      "bufferView": 2,
      "byteOffset": 98436,
      "componentType": 5126,
      "count": 1805,
      "max": [
        1.0,
        1.0,
        1.0
      ],
      "min": [
        -1.0,
        -1.0,
        -1.0
      ],
      "type": "VEC3"
    },
    {
      "bufferView": 1,
      "byteOffset": 25592,
      "componentType": 5126,
      "count": 1805,
      "max": [
        1.0000001192092896,
        0.6118510961532593
      ],
      "min": [
        0.0,
        0.3881489932537079
      ],
      "type": "VEC2"
    },
    {
      "bufferView": 0,
      "byteOffset": 64512,
      "componentType": 5125,
      "count": 9216,
      "type": "SCALAR"
    },
    {
      "bufferView": 2,
      "byteOffset": 120096,
      "componentType": 5126,
      "count": 1805,
      "max": [
        0.01071905717253685,
        0.05397438630461693,
        0.11060120165348053
      ],
      "min": [
        -0.01071905717253685,
        -0.05397438630461693,
        -4.5762088120682165e-05
      ],
      "type": "VEC3"
    },
    {
      "bufferView": 2,
      "byteOffset": 141756,
      "componentType": 5126,
      "count": 1805,
      "max": [
        1.0,
        1.0,
        1.0
      ],
      "min": [
        -1.0,
        -1.0,
        -1.0
      ],
      "type": "VEC3"
    },
    {
      "bufferView": 1,
      "byteOffset": 40032,
      "componentType": 5126,
      "count": 1805,
      "max": [
        1.0000001192092896,
        0.6118510961532593
      ],
      "min": [
        0.0,
        0.3881489932537079
      ],
      "type": "VEC2"
    },
    {
      "bufferView": 0,
      "byteOffset": 101376,
      "componentType": 5125,
      "count": 9216,
      "type": "SCALAR"
    },
    {
      "bufferView": 2,
      "byteOffset": 163416,
      "componentType": 5126,
      "count": 2421,
      "max": [
        0.0492066852748394,
        0.00988470483571291,
        0.1337454468011856
      ],
      "min": [
        -0.0492066852748394,
        -0.009884705767035484,
        0.10762427002191544
      ],
      "type": "VEC3"
    },
    {
      "bufferView": 2,
      "byteOffset": 192468,
      "componentType": 5126,
      "count": 2421,
      "max": [
        0.9999756217002869,
        0.999489426612854,
        0.9992365837097168
      ],
      "min": [
        -1.0,
        -0.9994893074035645,
        -1.0
      ],
      "type": "VEC3"
    },
    {
      "bufferView": 0,
      "byteOffset": 138240,
      "componentType": 5125,
      "count": 14544,
      "type": "SCALAR"
    },
    {
      "bufferView": 2,
      "byteOffset": 221520,
      "componentType": 5126,
      "count": 862,
      "max": [
        0.004121611826121807,
        0.01166069321334362,
        0.007380555383861065
      ],
      "min": [
        -0.004121611826121807,
        -0.01166069507598877,
        -0.00738055445253849
      ],
      "type": "VEC3"
    },
    {
      "bufferView": 2,
      "byteOffset": 231864,
      "componentType": 5126,
      "count": 862,
      "max": [
        1.0,
        1.0,
        0.9999890327453613
      ],
      "min": [
        -1.0,
        -1.0,
        -0.9999890327453613
      ],
      "type": "VEC3"
    },
    {
      "bufferView": 1,
      "byteOffset": 54472,
      "componentType": 5126,
      "count": 862,
      "max": [
        1.0000001192092896,
        1.0000001192092896
      ],
      "min": [
        0.0,
        0.5
      ],
      "type": "VEC2"
    },
    {
      "bufferView": 0,
      "byteOffset": 196416,
      "componentType": 5125,
      "count": 4608,
      "type": "SCALAR"
    },
    {
      "bufferView": 2,
      "byteOffset": 242208,
      "componentType": 5126,
      "count": 3177,
      "max": [
        0.049962118268013,
        0.04996200650930405,
        0.10392863303422928
      ],
      "min": [
        -0.049962118268013,
        -0.04996200650930405,
        0.08796264976263046
      ],
      "type": "VEC3"
    },
    {
      "bufferView": 2,
      "byteOffset": 280332,
      "componentType": 5126,
      "count": 3177,
      "max": [
        0.9999785423278809,
        0.9999776482582092,
        1.0
      ],
      "min": [
        -0.9999784827232361,
        -0.9999776482582092,
        -1.0
      ],
      "type": "VEC3"
    },
    {
      "bufferView": 1,
      "byteOffset": 61368,
      "componentType": 5126,
      "count": 3177,
      "max": [
        1.000000238418579,
        1.000000238418579
      ],
      "min": [
        0.0,
        0.0
      ],
      "type": "VEC2"
    },
    {
      "bufferView": 0,
      "byteOffset": 214848,
      "componentType": 5125,
      "count": 16128,
      "type": "SCALAR"
    }
  ],
  "asset": {
    "extras": {
      "author": "robertrestupambudi (https://sketchfab.com/robertrestupambudi)",
      "license": "CC-BY-4.0 (http://creativecommons.org/licenses/by/4.0/)",
      "source": "https://sketchfab.com/3d-models/gift-box-3d-icon-illustration-ebc2f467a5f14a759307a3b2eab618d2",
      "title": "Gift box 3d icon illustration"
    },
    "generator": "Sketchfab-15.55.0",
    "version": "2.0"
  },
  "bufferViews": [
    {
      "buffer": 0,
      "byteLength": 279360,
      "name": "floatBufferViews",
      "target": 34963
    },
    {
      "buffer": 0,
      "byteLength": 86784,
      "byteOffset": 279360,
      "byteStride": 8,
      "name": "floatBufferViews",
      "target": 34962
    },
    {
      "buffer": 0,
      "byteLength": 318456,
      "byteOffset": 366144,
      "byteStride": 12,
      "name": "floatBufferViews",
      "target": 34962
    }
  ],
  "buffers": [
    {
      "byteLength": 684600,
      "uri": "scene.bin"
    }
  ],
  "materials": [
    {
      "doubleSided": true,
      "name": "material",
      "pbrMetallicRoughness": {
        "baseColorFactor": [
          0.800236,
          0.00222361,
          0.0,
          1.0
        ],
        "metallicFactor": 0.0,
        "roughnessFactor": 0.9702571370213392
      }
    },
    {
      "doubleSided": true,
      "name": "Yellow",
      "pbrMetallicRoughness": {
        "baseColorFactor": [
          0.800553,
          0.726234,
          0.0,
          1.0
        ],
        "metallicFactor": 0.0,
        "roughnessFactor": 0.8310831568170298
      }
    },
    {
      "doubleSided": true,
      "name": "Green",
      "pbrMetallicRoughness": {
        "baseColorFactor": [
          0.0,
          0.362007,
          0.00283906,
          1.0
        ],
        "metallicFactor": 0.0,
        "roughnessFactor": 0.955120418165615
      }
    }
  ],
  "meshes": [
    {
      "name": "Gift box 3d icon illustration_Red_0",
      "primitives": [
        {
          "attributes": {
            "NORMAL": 1,
            "POSITION": 0,
            "TEXCOORD_0": 2
          },
          "indices": 3,
          "material": 0,
          "mode": 4
        }
      ]
    },
    {
      "name": "Plane_Piece_Yellow_0",
      "primitives": [
        {
          "attributes": {
            "NORMAL": 5,
            "POSITION": 4,
            "TEXCOORD_0": 6
          },
          "indices": 7,
          "material": 1,
          "mode": 4
        }
      ]
    },
    {
      "name": "Plane_Piece.001_Yellow_0",
      "primitives": [
        {
          "attributes": {
            "NORMAL": 9,
            "POSITION": 8,
            "TEXCOORD_0": 10
          },
          "indices": 11,
          "material": 1,
          "mode": 4
        }
      ]
    },
    {
      "name": "Vert_Yellow_0",
      "primitives": [
        {
          "attributes": {
            "NORMAL": 13,
            "POSITION": 12
          },
          "indices": 14,
          "material": 1,
          "mode": 4
        }
      ]
    },
    {
      "name": "Cylinder_Yellow_0",
      "primitives": [
        {
          "attributes": {
            "NORMAL": 16,
            "POSITION": 15,
            "TEXCOORD_0": 17
          },
          "indices": 18,
          "material": 1,
          "mode": 4
        }
      ]
    },
    {
      "name": "Plane.001_Green_0",
      "primitives": [
        {
          "attributes": {
            "NORMAL": 20,
            "POSITION": 19,
            "TEXCOORD_0": 21
          },
          "indices": 22,
          "material": 2,
          "mode": 4
        }
      ]
    }
  ],
  "nodes": [
    {
      "children": [
        1
      ],
      "matrix": [
        1.0,
        0.0,
        0.0,
        0.0,
        0.0,
        2.220446049250313e-16,
        -1.0,
        0.0,
        0.0,
        1.0,
        2.220446049250313e-16,
        0.0,
        0.0,
        0.0,
        0.0,
        1.0
      ],
      "name": "Sketchfab_model"
    },
    {
      "children": [
        2
      ],
      "matrix": [
        0.009999999776482582,
        0.0,
        0.0,
        0.0,
        0.0,
        0.0,
        0.009999999776482582,
        0.0,
        0.0,
        -0.009999999776482582,
        0.0,
        0.0,
        0.0,
        0.0,
        0.0,
        1.0
      ],
      "name": "a1679e3923654dcea2e9b114c6d2cda9.fbx"
    },
    {
      "children": [
        3
      ],
      "name": "RootNode"
    },
    {
      "children": [
        4,
        5,
        7,
        9,
        11,
        13
      ],
      "matrix": [
        100.0,
        0.0,
        0.0,
        0.0,
        0.0,
        -1.629206793918314e-05,
        -99.99999999999868,
        0.0,
        0.0,
        99.99999999999868,
        -1.629206793918314e-05,
        0.0,
        0.0,
        0.0,
        0.0,
        1.0
      ],
      "name": "Gift box 3d icon illustration"
    },
    {
      "mesh": 0,
      "name": "Gift box 3d icon illustration_Red_0"
    },
    {
      "children": [
        6
      ],
      "matrix": [
        1.0,
        0.0,
        0.0,
        0.0,
        0.0,
        1.0,
        -2.646977960169688e-23,
        0.0,
        0.0,
        2.646977960169688e-23,
        1.0,
        0.0,
        0.0,
        0.0,
        0.0,
        1.0
      ],
      "name": "Plane_Piece"
    },
    {
      "mesh": 1,
      "name": "Plane_Piece_Yellow_0"
    },
    {
      "children": [
        8
      ],
      "matrix": [
        1.0,
        0.0,
        0.0,
        0.0,
        0.0,
        1.0,
        -2.646977960169688e-23,
        0.0,
        0.0,
        2.646977960169688e-23,
        1.0,
        0.0,
        0.0,
        0.0,
        0.0,
        1.0
      ],
      "name": "Plane_Piece.001"
    },
    {
      "mesh": 2,
      "name": "Plane_Piece.001_Yellow_0"
    },
    {
      "children": [
        10
      ],
      "matrix": [
        0.7671889161957386,
        -0.6414212086191163,
        -1.3234889800848438e-23,
        0.0,
        0.6414212086191163,
        0.7671889161957386,
        7.346839692639297e-40,
        0.0,
        1.0153660762282947e-23,
        -8.489139012001023e-24,
        1.0,
        0.0,
        0.0,
        0.0,
        0.0007296092808246613,
        1.0
      ],
      "name": "Vert"
    },
    {
      "mesh": 3,
      "name": "Vert_Yellow_0"
    },
    {
      "children": [
        12
      ],
      "matrix": [
        7.549789959870878e-08,
        0.0,
        -0.9999999999999971,
        0.0,
        0.6301662338513664,
        0.7764602486370972,
        4.757622706907938e-08,
        0.0,
        0.7764602486370948,
        -0.6301662338513682,
        5.862111795984504e-08,
        0.0,
        0.0,
        0.0,
        0.11274996399879456,
        1.0
      ],
      "name": "Cylinder"
    },
    {
      "mesh": 4,
      "name": "Cylinder_Yellow_0"
    },
    {
      "children": [
        14
      ],
      "matrix": [
        1.0,
        0.0,
        0.0,
        0.0,
        0.0,
        1.0,
        -2.646977960169688e-23,
        0.0,
        0.0,
        2.646977960169688e-23,
        1.0,
        0.0,
        0.0,
        0.0,
        0.0,
        1.0
      ],
      "name": "Plane.001"
    },
    {
      "mesh": 5,
      "name": "Plane.001_Green_0"
    }
  ],
  "scene": 0,
  "scenes": [
    {
      "name": "Sketchfab_Scene",
      "nodes": [
        0
      ]
    }
  ]
}
